# xmcd CD database file
#
# Track frame offsets:
#	150
#	69050
#	117762
#	164170
#	218677
#	252190
#	306985
#
# Disc length: 4749 seconds
#
# Revision: 0
# Processed by: cddbd v1.5.2PL0 Copyright (c) Steve Scherf et al.
# Submitted via: CDex 1.51
#
DISCID=5c128b07
DTITLE=Rosario Giuliani - Live From Virginia Beach
DYEAR=1997
DGENRE=Jazz
TTITLE0=Blues On The Corner
TTITLE1=Impressions
TTITLE2=What's New
TTITLE3=Moanin
TTITLE4=Lover
TTITLE5=On A Misty Night
TTITLE6=Caravan
EXTD=YEAR: 1997
EXTT0=
EXTT1=
EXTT2=
EXTT3=
EXTT4=
EXTT5=
EXTT6=
PLAYORDER=
